<?xml version="1.0" encoding="UTF-8" standalone="no"?>
<svg
   export-ydpi="90"
   export-xdpi="90"
   id="svg2"
   height="24"
   width="24">
  <g
     transform="matrix(0.16857384,0,0,0.16857384,-1.6121692,22.349773)"
     id="a">
    <path
       d="m 73.220223,-86.885365 10.729538,0 c 0,0 -5.777445,-43.560305 -13.205588,-43.560305 -7.428142,0 -7.060363,5.2287 -7.060363,5.2287 0,0 16.139207,26.518637 9.536413,38.331605 z"
       id="b"
       style="fill:#000000;fill-opacity:1;stroke-width:1px;stroke-linecap:butt;stroke-linejoin:miter;stroke-opacity:1"
       connector-curvature="0" />
    <path
       d="m 80.124531,-86.924135 c 0,0 -18.990048,-10.540082 -41.558004,-5.057845 -44.3873677,10.782636 -26.787087,94.4331 7.292174,96.8038 19.684626,1.36935 16.63425,-5.72646 29.790328,-4.69772 13.090609,1.02362 7.391744,5.38239 25.618251,6.06706 30.66845,-0.11484 50.95557,-55.270941 31.43444,-85.099585 -5.08769,-7.774078 -11.21386,-12.333698 -23.15931,-14.895949 -18.955565,-4.7927 -27.959761,7.56491 -29.417879,6.880239 z"
       id="c"
       style="fill:#ff0000;fill-opacity:1;stroke:#000000;stroke-width:5;stroke-linecap:round;stroke-linejoin:round;stroke-miterlimit:4;stroke-dasharray:none;stroke-opacity:1"
       connector-curvature="0" />
    <path
       d="m 79.412704,-89.290756 c 0,0 3.554781,-13.886164 23.319156,-21.599034 19.76435,-7.71287 33.8566,-3.91215 33.8566,-3.91215 8.77559,1.24849 -5.93481,29.070971 -32.2873,30.257566 -26.352482,1.186594 -24.888456,-4.153084 -24.888456,-4.746382 z"
       id="d"
       style="fill:#30c300;fill-opacity:1;stroke:#000000;stroke-width:4;stroke-linecap:butt;stroke-linejoin:miter;stroke-miterlimit:4;stroke-dasharray:none;stroke-opacity:1"
       connector-curvature="0" />
  </g>
</svg>
stop-color:#ffffff;stop-opacity:0"
         offset="1" />
    </linearGradient>
    <linearGradient
       id="linearGradient3222">
      <stop
         id="stop3224"
         style="stop-color:#58f248;stop-opacity:1"
         offset="0" />
      <stop
         id="stop3226"
         style="stop-color:#40b235;stop-opacity:1"
         offset="1" />
    </linearGradient>
    <linearGradient
       id="linearGradient3208">
      <stop
         id="stop3210"
         style="stop-color:#ff6d00;stop-opacity:1"
         offset="0" />
      <stop
         id="stop3212"
         style="stop-color:#d40000;stop-opacity:1"
         offset="1" />
    </linearGradient>
    <linearGradient
       id="linearGradient3160">
      <stop
         id="stop3162"
         style="stop-color:#dadada;stop-opacity:1"
         offset="0" />
      <stop
         id="stop3164"
         style="stop-color:#ffffff;stop-opacity:1"
         offset="1" />
    </linearGradient>
    <linearGradient
       id="linearGradient3148">
      <stop
         id="stop3150"
         style="stop-color:#4a0b02;stop-opacity:1"
         offset="0" />
      <stop
         id="stop3152"
         style="stop-color:#901604;stop-opacity:1"
         offset="1" />
    </linearGradient>
    <linearGradient
       id="linearGradient3136">
      <stop
         id="stop3138"
         style="stop-color:#0ff248;stop-opacity:1"
         offset="0" />
      <stop
         id="stop3140"
         style="stop-color:#aef248;stop-opacity:1"
         offset="1" />
    </linearGradient>
    <linearGradient
       x1="21.907408"
       y1="19.555557"
       x2="100.75926"
       y2="104.88889"
       id="linearGradient3483"
       xlink:href="#linearGradient3136"
       gradientUnits="userSpaceOnUse" />
    <linearGradient
       x1="8.2962961"
       y1="85.333336"
       x2="52.740742"
       y2="61.629631"
       id="linearGradient3487"
       xlink:href="#linearGradient3148"
       gradientUnits="userSpaceOnUse" />
    <linearGradient
       x1="34.814816"
       y1="76"
       x2="39.703705"
       y2="68"
       id="linearGradient3489"
       xlink:href="#linearGradient3148"
       gradientUnits="userSpaceOnUse" />
    <radialGradient
       cx="45.68301"
       cy="38.459557"
       r="19.949936"
       fx="45.68301"
       fy="38.459557"
       id="radialGradient2226"
       xlink:href="#linearGradient3208"
       gradientUnits="userSpaceOnUse"
       gradientTransform="matrix(0.7578421,-0.030497,0.03150583,0.7829113,9.8508017,10.54763)" />
    <linearGradient
       x1="62.853935"
       y1="26.309134"
       x2="70.186897"
       y2="32.594528"
       id="linearGradient2228"
       xlink:href="#linearGradient3222"
       gradientUnits="userSpaceOnUse" />
    <linearGradient
       x1="38.759926"
       y1="32.804039"
       x2="50.91169"
       y2="44.536774"
       id="linearGradient2230"
       xlink:href="#linearGradient3236"
       gradientUnits="userSpaceOnUse" />
    <linearGradient
       x1="38.759926"
       y1="32.804039"
       x2="50.91169"
       y2="44.536774"
       id="linearGradient2232"
       xlink:href="#linearGradient3236"
       gradientUnits="userSpaceOnUse" />
    <linearGradient
       x1="72.444443"
       y1="82.740738"
       x2="68.296295"
       y2="73.111115"
       id="linearGradient2234"
       xlink:href="#linearGradient3160"
       gradientUnits="userSpaceOnUse" />
    <linearGradient
       inkscape:collect="always"
       xlink:href="#linearGradient3222"
       id="linearGradient3042"
       gradientUnits="userSpaceOnUse"
       x1="62.853935"
       y1="26.309134"
       x2="70.186897"
       y2="32.594528"
       gradientTransform="matrix(3.4938789,0,0,2.8317924,-117.49892,-185.15148)" />
  </defs>
  <g
     id="g3369"
     transform="matrix(0.16857384,0,0,0.16857384,-1.6121692,22.349773)">
    <path
       inkscape:connector-curvature="0"
       style="fill:#000000;fill-opacity:1;fill-rule:evenodd;stroke-width:1px;stroke-linecap:butt;stroke-linejoin:miter;stroke-opacity:1"
       id="path3218"
       d="m 73.220223,-86.885365 10.729538,0 c 0,0 -5.777445,-45.693175 -13.205588,-45.693175 -7.428142,0 -9.904188,6.19568 -9.904188,6.19568 0,0 18.983032,27.106124 12.380238,39.497495 z" />
    <path
       sodipodi:nodetypes="cssscscc"
       inkscape:connector-curvature="0"
       style="fill:#ff0000;fill-opacity:1;fill-rule:evenodd;stroke:#000000;stroke-width:5;stroke-linecap:round;stroke-linejoin:round;stroke-miterlimit:4;stroke-dasharray:none;stroke-opacity:1"
       id="path3206"
       d="m 80.124531,-86.924135 c 0,0 -18.990048,-10.540082 -41.558004,-5.057845 -44.3873677,10.782636 -26.787087,94.4331 7.292174,96.8038 19.684626,1.36935 16.63425,-5.72646 29.790328,-4.69772 13.090609,1.02362 7.391744,5.38239 25.618251,6.06706 30.66845,-0.11484 50.95557,-55.270941 31.43444,-85.099585 -5.08769,-7.774078 -11.21386,-12.333698 -23.15931,-14.895949 -18.955565,-4.7927 -27.959761,7.56491 -29.417879,6.880239 z" />
    <path
       sodipodi:nodetypes="csssc"
       inkscape:connector-curvature="0"
       style="fill:url(#linearGradient3042);fill-opacity:1;fill-rule:evenodd;stroke:#000000;stroke-width:4;stroke-linecap:butt;stroke-linejoin:miter;stroke-miterlimit:4;stroke-dasharray:none;stroke-opacity:1"
       id="path3220"
       d="m 79.412704,-89.290756 c 0,0 0,-16.019034 19.764376,-23.731904 19.76435,-7.71287 28.62722,-0.59268 37.41138,-1.77928 8.78417,-1.18659 -5.93481,29.070971 -32.2873,30.257566 -26.352482,1.186594 -24.888456,-4.153084 -24.888456,-4.746382 z" />
    <path
       inkscape:connector-curvature="0"
       id="path3115"
       d="M 85.677797,8.21861 C 74.621902,5.60577 71.932307,5.48289 63.498696,7.20529 58.894107,8.14568 53.585561,8.72781 49.541537,8.7358 43.676749,8.7474 42.569715,8.5402 38.619239,6.69155 31.076517,3.16189 24.795317,-4.07129 19.431229,-15.4046 c -4.400066,-9.29651 -6.411212,-17.84971 -6.883166,-29.273366 -0.918493,-22.232195 4.315254,-36.680357 18.434988,-50.891208 8.277692,-8.331106 10.965639,-9.786756 18.071866,-9.786756 7.70072,0 11.598836,2.21794 22.39,12.739432 l 8.626514,8.410935 16.133776,0.102781 L 112.33898,-84 l 7.11865,-2.542731 7.11864,-2.542731 3.33524,3.55968 c 4.2928,4.58166 7.48522,9.599102 9.72905,15.290864 1.68753,4.280622 1.79153,5.217844 1.82038,16.40441 0.0338,13.085444 -0.66006,17.946938 -3.87013,27.118648 -5.47299,15.63718 -15.91313,29.3593 -26.16009,34.38383 -3.39304,1.66375 -4.70125,1.90019 -11.29513,2.04135 C 94.1884,9.84063 91.26019,9.5379 85.677797,8.21861 l 0,0 z"
       style="opacity:0;fill:#ffffff;fill-opacity:1;fill-rule:nonzero;stroke:none" />
    <path
       inkscape:connector-curvature="0"
       id="path3117"
       d="M 86.576271,8.23142 C 76.025033,5.6602 72.121536,5.47106 63.525424,7.11449 c -9.922572,1.89704 -18.689059,1.89934 -23.748825,0.006 -7.4114,-2.77283 -16.653953,-13.53817 -21.3895,-24.91347 -1.165471,-2.79958 -2.885318,-8.01096 -3.821882,-11.58085 -1.509377,-5.75325 -1.708729,-7.91569 -1.754631,-19.03306 -0.03985,-9.652371 0.212892,-13.609159 1.096888,-17.172139 2.878243,-11.60086 9.82111,-23.469146 18.4355,-31.514036 6.591688,-6.155905 10.752048,-8.262975 16.315072,-8.262975 7.924151,0 12.259378,2.50706 23.824407,13.777678 l 7.6011,7.407594 16.466698,0.08533 16.466699,0.08544 6.93283,-2.495463 6.93282,-2.495464 2.80368,3.17343 c 6.9164,7.828561 10.46816,14.975837 11.53487,23.211909 0.8645,6.674779 0.33405,18.703005 -1.17638,26.675138 -3.52088,18.58326 -16.32571,37.61492 -29.38013,43.6673 -5.4904,2.5455 -14.881006,2.7383 -24.088369,0.49457 z M 51.511632,-61.752415 c 3.34371,-2.49644 4.476862,-4.723233 4.773406,-9.380376 0.339649,-5.334095 -0.516211,-7.653998 -3.977288,-10.780874 -4.628746,-4.181793 -9.739663,-4.384295 -14.772251,-0.585297 -3.444378,2.600091 -4.852079,5.39544 -4.854999,9.640844 -0.0032,4.669983 1.911937,8.7379 5.264001,11.181127 2.304632,1.679783 2.94337,1.817143 7.168343,1.541548 3.16418,-0.206399 5.197779,-0.720289 6.398788,-1.616972 l 0,0 z"
       style="opacity:0;fill:#ffffff;fill-opacity:1;fill-rule:nonzero;stroke:none" />
    <path
       inkscape:connector-curvature="0"
       id="path3119"
       d="M 86.576271,8.23142 C 76.025033,5.6602 72.121536,5.47106 63.525424,7.11449 c -9.922572,1.89704 -18.689059,1.89934 -23.748825,0.006 -7.4114,-2.77283 -16.653953,-13.53817 -21.3895,-24.91347 -1.165471,-2.79958 -2.885318,-8.01096 -3.821882,-11.58085 -1.509377,-5.75325 -1.708729,-7.91569 -1.754631,-19.03306 -0.03985,-9.652371 0.212892,-13.609159 1.096888,-17.172139 2.878243,-11.60086 9.82111,-23.469146 18.4355,-31.514036 6.591688,-6.155905 10.752048,-8.262975 16.315072,-8.262975 7.924151,0 12.259378,2.50706 23.824407,13.777678 l 7.6011,7.407594 16.466698,0.08533 16.466699,0.08544 6.93283,-2.495463 6.93282,-2.495464 2.80368,3.17343 c 6.9164,7.828561 10.46816,14.975837 11.53487,23.211909 0.8645,6.674779 0.33405,18.703005 -1.17638,26.675138 -3.52088,18.58326 -16.32571,37.61492 -29.38013,43.6673 -5.4904,2.5455 -14.881006,2.7383 -24.088369,0.49457 z M 51.511632,-61.752415 c 3.34371,-2.49644 4.476862,-4.723233 4.773406,-9.380376 0.339649,-5.334095 -0.516211,-7.653998 -3.977288,-10.780874 -4.628746,-4.181793 -9.739663,-4.384295 -14.772251,-0.585297 -3.444378,2.600091 -4.852079,5.39544 -4.854999,9.640844 -0.0032,4.669983 1.911937,8.7379 5.264001,11.181127 2.304632,1.679783 2.94337,1.817143 7.168343,1.541548 3.16418,-0.206399 5.197779,-0.720289 6.398788,-1.616972 l 0,0 z"
       style="opacity:0;fill:#ffffff;fill-opacity:1;fill-rule:nonzero;stroke:none" />
    <path
       inkscape:connector-curvature="0"
       id="path3121"
       d="M 86.576271,8.23142 C 76.025033,5.6602 72.121536,5.47106 63.525424,7.11449 c -9.922572,1.89704 -18.689059,1.89934 -23.748825,0.006 -7.4114,-2.77283 -16.653953,-13.53817 -21.3895,-24.91347 -1.165471,-2.79958 -2.885318,-8.01096 -3.821882,-11.58085 -1.509377,-5.75325 -1.708729,-7.91569 -1.754631,-19.03306 -0.03985,-9.652371 0.212892,-13.609159 1.096888,-17.172139 2.878243,-11.60086 9.82111,-23.469146 18.4355,-31.514036 6.591688,-6.155905 10.752048,-8.262975 16.315072,-8.262975 7.924151,0 12.259378,2.50706 23.824407,13.777678 l 7.6011,7.407594 16.466698,0.08533 16.466699,0.08544 6.93283,-2.495463 6.93282,-2.495464 2.80368,3.17343 c 6.9164,7.828561 10.46816,14.975837 11.53487,23.211909 0.8645,6.674779 0.33405,18.703005 -1.17638,26.675138 -3.52088,18.58326 -16.32571,37.61492 -29.38013,43.6673 -5.4904,2.5455 -14.881006,2.7383 -24.088369,0.49457 z M 51.511632,-61.752415 c 3.34371,-2.49644 4.476862,-4.723233 4.773406,-9.380376 0.339649,-5.334095 -0.516211,-7.653998 -3.977288,-10.780874 -4.628746,-4.181793 -9.739663,-4.384295 -14.772251,-0.585297 -3.444378,2.600091 -4.852079,5.39544 -4.854999,9.640844 -0.0032,4.669983 1.911937,8.7379 5.264001,11.181127 2.304632,1.679783 2.94337,1.817143 7.168343,1.541548 3.16418,-0.206399 5.197779,-0.720289 6.398788,-1.616972 l 0,0 z"
       style="opacity:0;fill:#ffffff;fill-opacity:1;fill-rule:nonzero;stroke:none" />
    <path
       inkscape:connector-curvature="0"
       id="path3123"
       d="m 40.135593,-59.745243 c -2.641691,-0.997396 -6.090499,-4.519091 -7.154854,-7.306065 -3.826992,-10.020838 4.132995,-20.251725 14.276064,-18.348874 2.935166,0.550641 7.628861,4.578271 8.914635,7.649593 1.92894,4.607649 0.46943,12.245706 -2.91406,15.250156 -2.983396,2.649177 -9.678979,4.055053 -13.121785,2.75519 z"
       style="opacity:0;fill:#ffffff;fill-opacity:1;fill-rule:nonzero;stroke:none" />
    <path
       inkscape:connector-curvature="0"
       id="path3125"
       d="m 40.135593,-59.745243 c -2.641691,-0.997396 -6.090499,-4.519091 -7.154854,-7.306065 -3.826992,-10.020838 4.132995,-20.251725 14.276064,-18.348874 2.935166,0.550641 7.628861,4.578271 8.914635,7.649593 1.92894,4.607649 0.46943,12.245706 -2.91406,15.250156 -2.983396,2.649177 -9.678979,4.055053 -13.121785,2.75519 z"
       style="opacity:0;fill:#ffffff;fill-opacity:1;fill-rule:nonzero;stroke:none" />
    <path
       inkscape:connector-curvature="0"
       id="path3127"
       d="m 40.135593,-59.745243 c -2.641691,-0.997396 -6.090499,-4.519091 -7.154854,-7.306065 -3.826992,-10.020838 4.132995,-20.251725 14.276064,-18.348874 2.935166,0.550641 7.628861,4.578271 8.914635,7.649593 1.92894,4.607649 0.46943,12.245706 -2.91406,15.250156 -2.983396,2.649177 -9.678979,4.055053 -13.121785,2.75519 z"
       style="opacity:0;fill:#ffffff;fill-opacity:1;fill-rule:nonzero;stroke:none" />
  </g>
</svg>
