<?xml version="1.0" encoding="UTF-8" standalone="no"?>
<svg xmlns="http://www.w3.org/2000/svg"
   xmlns:dc="http://purl.org/dc/elements/1.1/"
   xmlns:cc="http://creativecommons.org/ns#"
   xmlns:rdf="http://www.w3.org/1999/02/22-rdf-syntax-ns#"
   width="200" height="280" version="1.0" viewBox="-1 -1 147.83525 206.97461">
  <metadata>
    <rdf:RDF>
      <cc:Work rdf:about="">
        <dc:format>image/svg+xml</dc:format>
        <dc:type rdf:resource="http://purl.org/dc/dcmitype/StillImage" />
      </cc:Work>
    </rdf:RDF>
  </metadata>
  <path style="fill:#1a1a1a;fill-rule:evenodd;stroke:#000000;stroke-width:1px;stroke-linecap:butt"
     d="M 36.472058,16.060618 C 30.234438,19.170158 33.840078,24.281406 21.315808,30.716866 C 19.789698,31.501036 26.554448,33.573176 26.378308,34.810616 C 23.309318,56.370952 5.678268,47.818692 8.159558,51.716862 C 12.826818,59.049232 25.236118,54.344912 25.597058,54.904362 C 26.377318,56.113722 16.406088,57.760672 17.440808,59.091862 C 19.258838,61.430772 27.125078,59.877482 27.565808,61.029362 C 28.186158,62.650682 14.246288,62.163802 15.565808,63.873112 C 20.806208,70.66151 29.855668,65.627252 29.222058,67.93561 C 23.978248,87.03995 14.590908,110.75057 13.190808,111.02936 C 10.447278,111.57563 7.981918,111.89004 5.972058,112.84186 C 2.344158,114.55994 0.19787804,117.18009 0.53455804,118.56061 C 0.69715804,119.22734 6.659048,117.96441 6.878308,118.46686 C 7.265668,119.35449 7.510128,120.22985 8.097058,120.52936 C 8.632798,120.80274 9.150088,118.72722 10.440808,118.74811 C 12.434668,118.78037 15.548188,120.0099 16.815808,117.99811 C 30.147258,96.840208 38.579378,71.87064 39.847058,71.90435 C 42.753128,71.97939 45.196948,83.73707 44.315808,86.27936 C 40.450468,97.431728 39.576558,104.6509 40.784558,108.65436 C 42.813868,111.68403 46.701298,120.45297 56.128308,119.12311 C 64.128848,117.99447 89.250808,108.27898 91.690818,109.31061 C 103.91007,114.47685 118.4358,112.98916 128.10358,112.70733 C 130.48351,112.63796 132.56905,113.98955 134.25332,113.96686 C 135.92926,113.94428 135.73034,112.18796 136.81582,111.21686 C 144.86762,104.01352 146.15449,104.9627 144.94082,100.52936 C 144.55153,99.107328 137.74101,104.96585 130.22207,106.49811 C 122.75977,108.01882 114.53249,105.7603 113.84707,104.59186 C 103.34309,86.68578 97.631548,74.74001 92.722068,72.8106 C 90.488658,71.93288 68.754176,81.30464 58.815808,88.31061 C 57.151518,89.48384 53.639988,82.11571 55.534558,76.77936 C 56.632578,73.68664 62.950468,68.63004 63.534558,65.654362 C 63.596978,65.093962 63.648028,64.704462 63.624868,64.199702 C 63.623308,64.165702 63.848078,64.090582 63.847458,63.950482 C 63.846888,63.821172 63.577728,63.685492 63.575128,63.646042 C 63.010068,55.091692 50.952708,54.369812 48.972058,45.873112 C 49.096948,45.181672 54.291488,47.364662 54.315808,45.841862 C 54.337078,44.584582 57.638368,39.694536 57.409558,38.404366 C 57.229068,37.386626 57.394808,36.532256 57.222058,35.498116 C 57.135028,34.977086 56.710858,34.206236 56.628308,33.685616 C 56.520228,33.003976 57.675188,32.488366 57.565808,31.810616 C 57.303058,30.182476 57.706928,28.585836 57.409558,27.029366 C 57.308198,26.498826 56.794878,26.203336 56.690808,25.685616 C 56.554918,25.009566 57.307498,24.522036 57.472058,23.873116 C 57.832528,22.451648 57.877058,20.931268 57.440808,19.685618 C 51.617498,10.657588 44.282478,12.300618 36.472058,16.060618 z M 89.753318,84.37311 C 89.846118,84.39433 89.905498,84.45894 89.940818,84.56061 C 92.686938,92.46511 101.23371,100.69229 100.06582,101.34186 C 87.009248,94.50524 76.690806,98.799278 76.690806,96.873108 C 80.815246,92.37698 88.361448,84.05484 89.753318,84.37311 z"/>
  <path style="fill:#ffffff;stroke:#000000;stroke-width:6;stroke-linejoin:round"
     d="M 82.566458,131.97461 C 115.69678,126.01914 138.79914,95.755508 135.8096,62.227188 C 132.82005,28.698861 104.7278,3 71.066453,3 C 37.405108,3 9.312858,28.698861 6.32331,62.227188 C 3.333762,95.755508 26.436127,126.01914 59.566453,131.97461 L 59.566453,153.97461 L 33.566453,153.97461 L 33.566453,174.97461 L 59.566453,174.97461 L 59.566453,201.97461 L 82.566458,201.97461 L 82.566458,174.97461 L 107.56645,174.97461 L 107.56645,153.97461 L 82.566458,153.97461 L 82.566458,131.97461 z M 119.56645,67.974604 C 119.56645,94.484271 98.076118,115.97461 71.566453,115.97461 C 45.056785,115.97461 23.566453,94.484271 23.566453,67.974604 C 23.566453,41.464936 45.056785,19.974604 71.566453,19.974604 C 98.076118,19.974604 119.56645,41.464936 119.56645,67.974604 L 119.56645,67.974604 z" />
</svg>
